<svg width="161" height="34" viewBox="0 0 161 34" fill="none" xmlns="http://www.w3.org/2000/svg">
    <path d="M18.72 33.48C29.52 33.48 36 28.344 36 19.752V18.936H25.92V19.752C25.92 23.4 24.192 24.84 18.864 24.84C12.336 24.84 10.56 23.304 10.56 16.92C10.56 10.536 12.336 9 18.864 9C24.192 9 25.92 10.44 25.92 14.088V14.904H36V14.088C36 5.496 29.52 0.36 18.72 0.36C7.536 0.36 0.96 6.888 0.96 16.92C0.96 26.952 7.536 33.48 18.72 33.48ZM47.4015 33V0.839999H38.3775V33H47.4015ZM59.3078 33V22.056H63.0038C66.5078 22.056 67.4678 22.728 68.6198 25.128L72.4598 33H82.8758L78.8918 24.936C77.6918 22.488 76.6358 20.904 73.3238 20.04V19.56C79.4678 18.792 82.0118 15.768 82.0118 10.68C82.0118 4.392 77.5478 0.839999 69.0518 0.839999H50.2838V33H59.3078ZM59.3078 8.952H68.9558C71.5958 8.952 72.5558 9.576 72.5558 12.12C72.5558 14.856 71.5958 15.336 68.9558 15.336H59.3078V8.952ZM101.595 33.48C112.395 33.48 118.875 28.344 118.875 19.752V18.936H108.795V19.752C108.795 23.4 107.067 24.84 101.739 24.84C95.211 24.84 93.435 23.304 93.435 16.92C93.435 10.536 95.211 9 101.739 9C107.067 9 108.795 10.44 108.795 14.088V14.904H118.875V14.088C118.875 5.496 112.395 0.36 101.595 0.36C90.411 0.36 83.835 6.888 83.835 16.92C83.835 26.952 90.411 33.48 101.595 33.48ZM129.461 33L131.957 27.048H147.221L149.669 33H160.037L146.117 0.839999H133.205L119.332 33H129.461ZM137.237 14.424L139.301 9H139.925L142.037 14.424L143.909 18.936H135.365L137.237 14.424Z" fill="#333333"/>
</svg>
