<svg width="427" height="118" viewBox="0 0 427 118" fill="none" xmlns="http://www.w3.org/2000/svg">
    <path d="M63.09 116V2.1H33.34C27.05 13.66 17.36 16.21 4.95 16.21H0.7V37.8H31.13V116H63.09ZM129.259 117.7C161.729 117.7 186.379 100.53 186.379 58.2C186.379 18.93 168.869 0.399999 124.839 0.399999C89.4785 0.399999 71.2885 15.19 71.2885 38.31C71.2885 62.11 86.5885 72.48 114.809 72.48C134.019 72.48 144.729 66.02 149.829 58.54H152.039V64.66C152.039 84.55 145.409 87.1 129.259 87.1C116.339 87.1 110.899 86.42 110.899 78.6V77.07H75.1985V78.6C75.1985 102.06 95.5985 117.7 129.259 117.7ZM126.709 50.72C108.519 50.72 104.949 48.17 104.949 40.69C104.949 34.06 108.519 31.17 126.709 31.17C146.599 31.17 150.169 34.06 150.169 40.69C150.169 48.17 147.109 50.72 126.709 50.72ZM249.41 117.7C283.24 117.7 305.68 107.67 305.68 84.55C305.68 65.85 293.78 59.22 279.33 56.67V54.46C294.12 51.74 302.28 44.09 302.28 30.49C302.28 11.62 284.26 0.399999 249.24 0.399999C214.73 0.399999 196.54 11.62 196.54 30.49C196.54 44.09 204.87 51.74 219.15 54.46V56.67C206.23 59.22 192.8 65.85 192.8 84.55C192.8 107.67 215.07 117.7 249.41 117.7ZM249.24 46.81C232.24 46.81 228.5 44.43 228.5 38.99C228.5 32.87 232.24 31 249.24 31C266.92 31 270.49 32.87 270.49 38.99C270.49 44.43 266.92 46.81 249.24 46.81ZM249.24 87.1C229.69 87.1 225.27 84.38 225.27 77.58C225.27 70.61 229.18 68.4 249.24 68.4C269.3 68.4 273.21 70.61 273.21 77.58C273.21 84.38 268.79 87.1 249.24 87.1ZM370.337 117.7C410.117 117.7 426.437 100.87 426.437 75.54C426.437 51.91 414.027 37.8 384.617 37.8C361.157 37.8 350.277 47.32 347.727 54.12H346.027L349.087 30.83H419.637V2.1H320.697L313.897 69.93H346.367C348.577 63.98 356.057 62.79 370.847 62.79C389.377 62.79 392.437 66.19 392.437 75.88C392.437 85.23 389.377 88.63 370.847 88.63C350.107 88.63 346.367 86.25 346.367 79.62V78.6H313.387V79.62C313.387 106.48 332.597 117.7 370.337 117.7Z" fill="#161616"/>
    <path d="M-1 65H431.537V73.5H-1V65Z" fill="#161616"/>
</svg>
